<svg xmlns="http://www.w3.org/2000/svg" width="34" height="39" viewBox="0 0 34 39">
  <g id="ico-chat" transform="translate(-47 -103)">
    <rect id="Rectangle_110" data-name="Rectangle 110" width="34" height="39" transform="translate(47 103)" fill="rgba(239,239,239,0)"/>
    <path id="ico-chat-2" data-name="ico-chat" d="M31.7,24.954a13.763,13.763,0,0,0-6.928-1.991c-.48-.03-.955-.045-1.412-.045-5.707,0-9.128,2.349-9.386,6.444-.281,4.48,3.244,7.282,9.67,7.686.133.008.271.014.422.017l4.8,2.671.063-.957a4.516,4.516,0,0,1,.848-2.517c2.414-1.277,4.467-2.436,4.667-5.612A6.11,6.11,0,0,0,31.7,24.954ZM21.075,31.161a1.081,1.081,0,0,1-.788.33,1.093,1.093,0,0,1-.794-.327,1.058,1.058,0,0,1-.333-.782,1.124,1.124,0,0,1,2.247,0A1.06,1.06,0,0,1,21.075,31.161Zm3.824,0a1.081,1.081,0,0,1-.788.33,1.093,1.093,0,0,1-.794-.327,1.058,1.058,0,0,1-.333-.782,1.124,1.124,0,0,1,2.247,0A1.059,1.059,0,0,1,24.9,31.161Zm3.824,0a1.081,1.081,0,0,1-.788.33,1.093,1.093,0,0,1-.794-.327,1.058,1.058,0,0,1-.333-.782,1.124,1.124,0,0,1,2.247,0A1.06,1.06,0,0,1,28.723,31.161Z" transform="translate(39.792 91.173)" fill="#c7cace"/>
  </g>
</svg>
