<svg xmlns="http://www.w3.org/2000/svg" width="34" height="39" viewBox="0 0 34 39">
  <g id="ico-user" transform="translate(-47 -103)">
    <rect id="Rectangle_110" data-name="Rectangle 110" width="34" height="39" transform="translate(47 103)" fill="rgba(239,239,239,0)"/>
    <g id="ico-cutomer" transform="translate(52.281 103.871)">
      <path id="Union_46" data-name="Union 46" d="M3.142,12.909c-.16,0-1.61-.034-1.9-1.2L.176,7.519A2.823,2.823,0,0,1,.1,5.876a1.779,1.779,0,0,1,1.506-1H4.769A1.619,1.619,0,0,1,6.357,6.1a3.4,3.4,0,0,1-.208,1.506l-1.1,4.315a2.123,2.123,0,0,1-1.9.985ZM1.162,2.03A2.028,2.028,0,1,1,3.187,4.055,2.034,2.034,0,0,1,1.162,2.03Z" transform="translate(17.341 16.608)" fill="#c7cace"/>
      <path id="Union_47" data-name="Union 47" d="M3.142,12.909c-.16,0-1.61-.034-1.9-1.2L.176,7.519A2.823,2.823,0,0,1,.1,5.876a1.779,1.779,0,0,1,1.506-1H4.769A1.619,1.619,0,0,1,6.357,6.1a3.4,3.4,0,0,1-.208,1.506l-1.1,4.315a2.123,2.123,0,0,1-1.9.985ZM1.162,2.03A2.028,2.028,0,1,1,3.187,4.055,2.034,2.034,0,0,1,1.162,2.03Z" transform="translate(-0.282 16.608)" fill="#c7cace"/>
      <path id="Path_2161" data-name="Path 2161" d="M295.991,384.512H290.43a3.145,3.145,0,0,0-2.658,1.76,4.969,4.969,0,0,0,.129,2.906l1.867,7.4c.515,2.065,3.073,2.125,3.363,2.125h.016a3.725,3.725,0,0,0,3.344-1.745l1.931-7.623a6,6,0,0,0,.371-2.666,2.847,2.847,0,0,0-2.8-2.155Z" transform="translate(-281.491 -367.99)" fill="#c7cace"/>
      <path id="Path_2157" data-name="Path 2157" d="M84.4,147.116a.3.3,0,0,0-.3.3v.782a.3.3,0,0,0,.3.3h.662a3.6,3.6,0,0,0,.511,1.263l-.451.451a.291.291,0,0,0,0,.421l.572.571a.273.273,0,0,0,.211.09.325.325,0,0,0,.211-.09l.451-.451a3.853,3.853,0,0,0,1.263.511v.631a.3.3,0,0,0,.3.3h.782a.3.3,0,0,0,.3-.3v-.662a3.6,3.6,0,0,0,1.263-.511l.451.451a.273.273,0,0,0,.211.09.325.325,0,0,0,.211-.09l.572-.572a.291.291,0,0,0,0-.421l-.451-.451a3.853,3.853,0,0,0,.511-1.263h.662a.3.3,0,0,0,.3-.3v-.782a.3.3,0,0,0-.3-.3h-.662a3.6,3.6,0,0,0-.511-1.263l.451-.451a.291.291,0,0,0,0-.421l-.571-.571a.273.273,0,0,0-.211-.09.325.325,0,0,0-.211.09l-.451.451a3.852,3.852,0,0,0-1.263-.511v-.662a.3.3,0,0,0-.3-.3h-.782a.3.3,0,0,0-.3.3v.662a3.6,3.6,0,0,0-1.263.511l-.481-.421a.273.273,0,0,0-.211-.09.325.325,0,0,0-.211.09l-.541.572a.291.291,0,0,0,0,.421l.451.451a3.852,3.852,0,0,0-.511,1.263Zm3.7.752,1.293-1.293.571.572L88.1,149.011,86.99,147.9l.571-.571Z" transform="translate(-76.804 -136.809)" fill="#c7cace"/>
    </g>
  </g>
</svg>
