<svg xmlns="http://www.w3.org/2000/svg" width="34" height="39" viewBox="0 0 34 39">
  <g id="ico-customer" transform="translate(-47 -103)">
    <rect id="Rectangle_110" data-name="Rectangle 110" width="34" height="39" transform="translate(47 103)" fill="rgba(239,239,239,0)"/>
    <g id="ico-cutomer" transform="translate(48.155 103.938)">
      <path id="Path_2148" data-name="Path 2148" d="M296.09,111.532h-5.627a3.18,3.18,0,0,0-2.69,1.759,4.918,4.918,0,0,0,.131,2.907l1.89,7.4c.521,2.065,3.109,2.125,3.4,2.125h.016a3.774,3.774,0,0,0,3.384-1.745l1.954-7.623a5.936,5.936,0,0,0,.375-2.666,2.881,2.881,0,0,0-2.836-2.155Zm-2.723,7.115-1.112-4.177.942-1.632H292.8v-.9H294v.9h-.421l.973,1.552Z" transform="translate(-281.556 -95.01)" fill="#c7cace"/>
      <path id="Subtraction_16" data-name="Subtraction 16" d="M3060.876,13194.126h-.013c-.164,0-1.609-.033-1.9-1.2l-1.063-4.189,0-.008a2.708,2.708,0,0,1-.071-1.638,1.774,1.774,0,0,1,1.507-.993h2.353l1.445,5.651-.354,1.392-.005.009A2.137,2.137,0,0,1,3060.876,13194.126Zm.03-8.852a2.028,2.028,0,1,1,.674-3.941,3.151,3.151,0,0,0-.36.558,4.879,4.879,0,0,0,.129,2.907l.1.4A2.025,2.025,0,0,1,3060.906,13185.274Z" transform="translate(-3056.001 -13163.609)" fill="#c7cace"/>
      <path id="Subtraction_17" data-name="Subtraction 17" d="M3063.163,13190.13h-.885a.34.34,0,0,1-.339-.34v-.717a4.283,4.283,0,0,1-1.427-.578l-.513.514a.373.373,0,0,1-.236.1.328.328,0,0,1-.24-.1l-.646-.646a.337.337,0,0,1-.1-.238.344.344,0,0,1,.1-.242l.509-.508a4.1,4.1,0,0,1-.579-1.428h-.745a.342.342,0,0,1-.344-.338v-.887a.338.338,0,0,1,.344-.338h.745a4.351,4.351,0,0,1,.579-1.432l-.509-.51a.326.326,0,0,1,0-.475l.613-.646a.351.351,0,0,1,.236-.1.309.309,0,0,1,.24.1l.542.477a4.1,4.1,0,0,1,1.431-.58v-.748a.34.34,0,0,1,.339-.34h.885a.34.34,0,0,1,.339.34v.748a4.428,4.428,0,0,1,1.427.58l.509-.514a.377.377,0,0,1,.24-.1.323.323,0,0,1,.24.1l.646.65a.327.327,0,0,1,0,.475l-.513.51a4.016,4.016,0,0,1,.579,1.428h.749a.339.339,0,0,1,.339.338v.887a.339.339,0,0,1-.339.338h-.749a4.306,4.306,0,0,1-.575,1.432l.509.51a.328.328,0,0,1,0,.475l-.646.646a.366.366,0,0,1-.24.1.3.3,0,0,1-.24-.1l-.509-.51a4.029,4.029,0,0,1-1.427.58v.748A.34.34,0,0,1,3063.163,13190.13Zm-.542-6.773a1.877,1.877,0,1,0,1.875,1.875A1.877,1.877,0,0,0,3062.621,13183.356Z" transform="translate(-3050.998 -13174.582)" fill="#c7cace"/>
      <path id="Union_48" data-name="Union 48" d="M3193,13296.466a1.707,1.707,0,1,1,1.709,1.708A1.707,1.707,0,0,1,3193,13296.466Zm-5.056.36a.6.6,0,0,1-.6-.6v-9.405h-1.4a.6.6,0,1,1,0-1.2h1.4v-9.4a.6.6,0,0,1,.6-.6h3a.6.6,0,0,1,0,1.2h-2.4v8.8h2.4a.6.6,0,1,1,0,1.2h-2.4v8.8h2.4a.6.6,0,1,1,0,1.2Zm7.5-9.128-.7-.7-.771.7a.555.555,0,0,1-.4.167.627.627,0,0,1-.4-.167.553.553,0,0,1-.167-.4.435.435,0,0,1,.2-.4l.7-.671-.7-.671a.471.471,0,0,1-.2-.4.614.614,0,0,1,.167-.4.562.562,0,0,1,.4-.171.619.619,0,0,1,.4.171l.738.7.7-.7a.562.562,0,0,1,.4-.171.618.618,0,0,1,.4.171.537.537,0,0,1,0,.837l-.7.668.7.671a.386.386,0,0,1,.2.367.618.618,0,0,1-.167.4.555.555,0,0,1-.4.167A.627.627,0,0,1,3195.439,13287.7Zm-1.572-10.242-1.038-1.071a.545.545,0,0,1,.771-.771l.667.668,1.509-1.506a.566.566,0,0,1,.768,0,.458.458,0,0,1-.033.7l-1.906,1.906a.4.4,0,0,1-.371.2A.516.516,0,0,1,3193.867,13277.456Z" transform="translate(-3166.721 -13266.597)" fill="#c7cace"/>
    </g>
  </g>
</svg>
