<svg xmlns="http://www.w3.org/2000/svg" width="34" height="39" viewBox="0 0 34 39">
  <g id="ico-progress" transform="translate(-47 -103)">
    <rect id="Rectangle_110" data-name="Rectangle 110" width="34" height="39" transform="translate(47 103)" fill="rgba(239,239,239,0)"/>
    <g id="ico-progress-2" data-name="ico-progress" transform="translate(-24.667 77.778)">
      <path id="Path_2136" data-name="Path 2136" d="M101.8,170.888h-1.319V158.555a1.056,1.056,0,0,0-1.055-1.055H96.794a1.056,1.056,0,0,0-1.055,1.055v12.333H94.157V166.2a1.056,1.056,0,0,0-1.055-1.055H90.465A1.056,1.056,0,0,0,89.41,166.2v4.686H87.828v-.73a1.056,1.056,0,0,0-1.055-1.055H84.136a1.056,1.056,0,0,0-1.055,1.055v.73H81.5v-4.422a1.056,1.056,0,0,0-1.055-1.055H77.807a1.056,1.056,0,0,0-1.055,1.055v4.422H75.529a.527.527,0,1,0,0,1.055H101.8a.527.527,0,1,0,0-1.055ZM90.465,166.2H93.1v4.686H90.465Zm-6.329,3.955h2.637v.73H84.136Zm-6.329-3.691h2.637v4.422H77.807Z" transform="translate(0 -114.091)" fill="#c7cace"/>
      <path id="Path_2137_-_Outline" data-name="Path 2137 - Outline" d="M119.021,51.182a.772.772,0,0,1-.547-.225l-4.353-4-2.331,2.1a.787.787,0,0,1-.254.148l0,.037-.222.006h-.063a.769.769,0,0,1-.507-1.346l2.871-2.587a.777.777,0,0,1,1.069.024l4.329,3.973,12.5-12.4a.777.777,0,0,1-.12-1.53l2.459-.6a.778.778,0,0,1,.932.972l-.711,2.441a.778.778,0,0,1-1.518-.125l-12.99,12.885A.773.773,0,0,1,119.021,51.182Z" transform="translate(-33.291 1.016)" fill="#c7cace"/>
      <path id="Path_2138" data-name="Path 2138" d="M346.549,59.645a.919.919,0,0,0,.919-.919v-.919a.919.919,0,1,0-1.838,0v.919A.919.919,0,0,0,346.549,59.645Z" transform="translate(-262.118 -25.443)" fill="#c7cace"/>
      <path id="Path_2139" data-name="Path 2139" d="M345.63,180.379v.919a.919.919,0,1,0,1.838,0v-.919a.919.919,0,1,0-1.838,0Z" transform="translate(-262.118 -135.138)" fill="#c7cace"/>
      <path id="Path_2140" data-name="Path 2140" d="M402.54,123.469a.92.92,0,0,0,.919.919h.919a.919.919,0,0,0,0-1.839h-.919A.919.919,0,0,0,402.54,123.469Z" transform="translate(-313.051 -84.206)" fill="#c7cace"/>
      <path id="Path_2141" data-name="Path 2141" d="M280.889,124.389h.919a.919.919,0,0,0,0-1.839h-.919a.919.919,0,0,0,0,1.839Z" transform="translate(-203.352 -84.206)" fill="#c7cace"/>
      <path id="Path_2142" data-name="Path 2142" d="M386.788,165.015a.919.919,0,0,0,1.3-1.3l-.65-.65h0a.919.919,0,1,0-1.3,1.3Z" transform="translate(-298.128 -120.224)" fill="#c7cace"/>
      <path id="Path_2143" data-name="Path 2143" d="M300.118,78.339a.919.919,0,0,0,1.3-1.3l-.65-.65a.919.919,0,0,0-1.3,1.3Z" transform="translate(-220.559 -42.655)" fill="#c7cace"/>
      <path id="Path_2144" data-name="Path 2144" d="M300.118,163.068l-.65.65a.919.919,0,1,0,1.3,1.3l.65-.65h0a.919.919,0,0,0-1.3-1.3Z" transform="translate(-220.559 -120.227)" fill="#c7cace"/>
      <path id="Path_2145" data-name="Path 2145" d="M386.787,78.608a.915.915,0,0,0,.649-.269l.65-.65h0a.919.919,0,0,0-1.3-1.3l-.65.65a.919.919,0,0,0,.65,1.569Z" transform="translate(-298.129 -42.653)" fill="#c7cace"/>
      <path id="Path_2146" data-name="Path 2146" d="M345.892,100.584l1.837,1.834a.919.919,0,1,0,1.3-1.3l-1.567-1.565V97.17a.919.919,0,0,0-.919-.919h0a.919.919,0,0,0-.919.919v2.763a.917.917,0,0,0,.27.65Z" transform="translate(-262.11 -60.673)" fill="#c7cace"/>
    </g>
  </g>
</svg>
